# xmcd CD database file generated by OrangeCD 5.1
#
# Track frame offsets:
#	182
#	12850
#	25042
#	37330
#	65200
#	82420
#	94475
#	104282
#	119837
#	132970
#	148717
#	159780
#	172205
#	192320
#	206740
#
# Disc length: 2958 seconds
#
# Revision: 0
# Processed by: cddbd v1.5PL3 Copyright (c) Steve Scherf et al.
# Submitted via: OrangeCD 5.1
#
DISCID=e80b8c0f
DTITLE=Various Artist - Legendary Blues Classics, Volume 1
DYEAR=1991
DGENRE=Blues
TTITLE0=Lonesome - Big Bill Broonzy
TTITLE1=I'm In The Mood
TTITLE2=Grits Ain't Groceries (All Around the World)
TTITLE3=Polka Dot and Moonbeams
TTITLE4=No Faith, No Love
TTITLE5=My Babe
TTITLE6=Hey Bo Diddley
TTITLE7=They Call Me Muddy Waters
TTITLE8=All I Could Do Was Cry
TTITLE9=You're Killing Me
TTITLE10=Wang Dang Doodle - Howling Wolf
TTITLE11=Cry For Me Baby
TTITLE12=I Want To Know
TTITLE13=So Many Roads, So Many Trains
TTITLE14=24 Hours
EXTD=
EXTT0=
EXTT1=
EXTT2=
EXTT3=
EXTT4=
EXTT5=
EXTT6=
EXTT7=
EXTT8=
EXTT9=
EXTT10=
EXTT11=
EXTT12=
EXTT13=
EXTT14=
PLAYORDER=
